<svg xmlns="http://www.w3.org/2000/svg" xmlns:xlink="http://www.w3.org/1999/xlink" fill="none" version="1.1" width="16" height="16" viewBox="0 0 16 16"><defs><clipPath id="master_svg0_2120_041210"><rect x="0" y="16" width="16" height="16" rx="0"/></clipPath></defs><g transform="matrix(1,0,0,-1,0,32)" clip-path="url(#master_svg0_2120_041210)"><path d="M7.1711511625,27.295362484374998L10.4640912625,27.295362484374998L10.4640912625,28.943425984375L7.1711511625,28.943425984375L7.1711511625,27.295362484374998ZM7.1711511625,23.175237184375L12.1105475625,23.175237184375L12.1105475625,24.823314684375L7.1711516625,24.823314684375L7.1711511625,23.175237184375ZM7.1711511625,19.055002484375L14.5801825625,19.055002484375L14.5801825625,20.703049884374998L7.1711664625,20.703049884374998L7.1711511625,19.055002484375ZM2.7349678625,21.389799784375L3.8783511625,20.737409384375L3.8783511625,29.767534984375C3.8783511625,30.866238984375002,5.5248212625,30.866238984375002,5.5248212625,29.767534984375L5.5248212625,18.276799974375C5.5248212625,15.953456084375,3.3409693625,18.894846784375,1.7516934825,20.073690684375C0.8712095625,20.737394084375,1.8544836925000001,22.042174784375,2.7349678625,21.389799784375Z" fill="currentColor" fill-opacity="1"/></g></svg>
