<svg xmlns="http://www.w3.org/2000/svg" xmlns:xlink="http://www.w3.org/1999/xlink" fill="none" version="1.1" width="16" height="16" viewBox="0 0 16 16"><defs><clipPath id="master_svg0_1986_038807"><rect x="0" y="0" width="16" height="16" rx="0"/></clipPath></defs><g clip-path="url(#master_svg0_1986_038807)"><path d="M7.1711511625,11.295362484375L10.4640912625,11.295362484375L10.4640912625,12.943425984375L7.1711511625,12.943425984375L7.1711511625,11.295362484375ZM7.1711511625,7.175237184375L12.1105475625,7.175237184375L12.1105475625,8.823314684375L7.1711516625,8.823314684375L7.1711511625,7.175237184375ZM7.1711511625,3.055002484375L14.5801825625,3.055002484375L14.5801825625,4.703049884375L7.1711664625,4.703049884375L7.1711511625,3.055002484375ZM2.7349678625,5.3897997843750005L3.8783511625,4.737409384375L3.8783511625,13.767534984375C3.8783511625,14.866238984375,5.5248212625,14.866238984375,5.5248212625,13.767534984375L5.5248212625,2.276799974375C5.5248212625,-0.04654391562500004,3.3409693625,2.894846784375,1.7516934825,4.073690684375C0.8712095625,4.7373940843749995,1.8544836925000001,6.042174784375,2.7349678625,5.3897997843750005Z" fill="currentColor" fill-opacity="1"/></g></svg>
