<svg width="32" height="32" viewBox="0 0 128 128" xmlns="http://www.w3.org/2000/svg" role="img" aria-labelledby="islandLogoTitle islandLogoDesc">
  <title id="islandLogoTitle">Island Logo</title>
  <desc id="islandLogoDesc">A three-dimensional central island surrounded by smaller islands</desc>
  <defs>
    <radialGradient id="waterGradient" cx="50%" cy="40%" r="70%">
      <stop offset="0%" stop-color="#f0f9ff" />
      <stop offset="55%" stop-color="#c6e8ff" />
      <stop offset="100%" stop-color="#89c9ff" />
    </radialGradient>
    <linearGradient id="islandSand" x1="0" y1="0" x2="1" y2="1">
      <stop offset="0%" stop-color="#fff9ec" />
      <stop offset="55%" stop-color="#ffe1b0" />
      <stop offset="100%" stop-color="#f5b971" />
    </linearGradient>
    <linearGradient id="islandSandShadow" x1="0" y1="0" x2="1" y2="0">
      <stop offset="0%" stop-color="#f9d49b" stop-opacity="0.6" />
      <stop offset="60%" stop-color="#e8ac63" stop-opacity="0.9" />
      <stop offset="100%" stop-color="#cc9150" stop-opacity="1" />
    </linearGradient>
    <linearGradient id="islandGrass" x1="0" y1="0" x2="1" y2="1">
      <stop offset="0%" stop-color="#a6f08f" />
      <stop offset="55%" stop-color="#52c41a" />
      <stop offset="100%" stop-color="#1f7a23" />
    </linearGradient>
    <linearGradient id="islandGrassHighlight" x1="0" y1="0" x2="1" y2="1">
      <stop offset="0%" stop-color="#e6fffb" />
      <stop offset="100%" stop-color="#73d13d" />
    </linearGradient>
  </defs>
  <circle cx="64" cy="64" r="60" fill="url(#waterGradient)" />
  <ellipse cx="64" cy="82" rx="46" ry="18" fill="#1f4f86" fill-opacity="0.12" />
  <ellipse cx="64" cy="74" rx="40" ry="18" fill="url(#islandSand)" />
  <ellipse cx="69" cy="78" rx="32" ry="13" fill="url(#islandSandShadow)" />
  <ellipse cx="64" cy="68" rx="27" ry="11" fill="url(#islandGrass)" />
  <ellipse cx="58" cy="64" rx="18" ry="7" fill="url(#islandGrassHighlight)" />
  <path d="M52 66c4-4 9-6 12-6s7 2 10 5" fill="none" stroke="#f6ffed" stroke-width="1.5" stroke-linecap="round" />
  <ellipse cx="35" cy="49" rx="9" ry="4" fill="#1f4f86" fill-opacity="0.16" />
  <circle cx="34" cy="45" r="7" fill="#ffe8bf" />
  <circle cx="34" cy="43" r="4.5" fill="#73d13d" />
  <ellipse cx="99" cy="55" rx="8" ry="3.5" fill="#1f4f86" fill-opacity="0.16" />
  <circle cx="98" cy="51" r="6" fill="#ffe8bf" />
  <circle cx="98" cy="49" r="3.5" fill="#73d13d" />
  <ellipse cx="85" cy="38" rx="6.5" ry="3" fill="#1f4f86" fill-opacity="0.16" />
  <circle cx="84" cy="35" r="5" fill="#ffe8bf" />
  <circle cx="84" cy="33" r="3" fill="#73d13d" />
  <ellipse cx="27" cy="68" rx="6.5" ry="3" fill="#1f4f86" fill-opacity="0.16" />
  <circle cx="26" cy="65" r="5" fill="#ffe8bf" />
  <circle cx="26" cy="63" r="3" fill="#73d13d" />
  <ellipse cx="93" cy="85" rx="6.5" ry="3" fill="#1f4f86" fill-opacity="0.16" />
  <circle cx="92" cy="82" r="5" fill="#ffe8bf" />
  <circle cx="92" cy="80" r="3" fill="#73d13d" />
  <circle cx="26" cy="30" r="10" fill="#fff7e6" />
  <circle cx="26" cy="30" r="8" fill="#ffd666" />
  <path d="M46 72c4 2 10 4 18 4s14-2 18-4" fill="none" stroke="#91d5ff" stroke-width="2" stroke-linecap="round" />
  <path d="M50 78c3 1.5 7 3 14 3s11-1.5 14-3" fill="none" stroke="#69c0ff" stroke-width="1.5" stroke-linecap="round" />
</svg>

